<?xml version="1.0" encoding="UTF-8"?><svg id="Calque_2" xmlns="http://www.w3.org/2000/svg" viewBox="0 0 451.93 404.02"><g id="Calque_1-2"><path d="m197.94,122.51c-2.95,1.26-4.86,2.07-6.75,2.9-26.6,11.64-52.93,23.98-79.89,34.72-22.55,8.98-46.35,13.01-70.8,11.72-12.5-.66-24.13-4.52-34.98-10.56-6.75-3.76-6.9-5.5-2.62-12.08,13.5-20.74,31.47-36.74,53.73-47.07,38.54-17.89,77.31-35.34,116.5-51.73,28.92-12.09,58.68-22.19,88.05-33.2,1.54-.58,3.31-.98,4.48-2.02,18.71-16.66,40.36-17.96,63.19-11.79,24.19,6.54,39.51,21.94,43.75,47.02,2.31,13.68.53,27.39-4.28,40.27-6.32,16.92-13.2,33.68-20.83,50.05-24.57,52.66-49.6,105.11-74.44,157.64-.71,1.49-1.35,3.01-2.32,5.18,2.94,1.8,5.82,3.57,9.05,5.54,1.7-3.83,3.26-7.11,4.62-10.47,1.67-4.1,4.14-5.69,8.47-3.51,3.54,1.78,7.25,3.24,11.18,4.98,1.72-2.61,3.55-5.35,5.33-8.13,2.46-3.83,5.48-4.93,9.69-2.54,3.31,1.88,6.85,3.36,10.74,5.24,1.56-2.63,2.99-5.17,4.56-7.63,3.12-4.89,4.38-5.13,9.12-1.98,2.73,1.81,5.46,3.63,8.67,5.77,1.99-3.92,3.76-7.44,5.56-10.95,2.44-4.76,3.43-5.03,7.97-2.04,2.48,1.63,4.86,3.41,7.68,5.4,1.05-2.37,1.9-4.45,2.87-6.46,2.89-5.94,5.39-6.71,10.97-3.33,2.53,1.53,4.96,3.23,7.84,5.11,1.45-3.44,2.67-6.66,4.14-9.76,2.16-4.54,3.85-5.05,8.18-2.44,2.54,1.53,4.92,3.34,7.78,5.3,1.73-3.09,3.39-6.07,5.07-9.03,2.09-3.68,4.97-4.59,8.78-2.56,6.83,3.65,12.92,7.59,14.89,16.13,1.71,7.4,4.64,14.53,7.33,21.67,1.57,4.17.73,6.28-3.54,8.31-35.76,17.02-73.07,30.05-110.32,43.2-40.22,14.19-80.59,27.95-120.89,41.92-1.87.65-3.82,1.25-5.51,2.25-42.66,25.19-80.51,1.48-94.96-33.87-7.19-17.59-7.69-35.43-1.01-53.48,22.59-60.98,50-119.78,79.89-177.47.88-1.7,1.71-3.43,3.07-6.19Zm169.81-62.88c.49-25.58-13.51-44.42-40.05-51.07-3.38-.85-6.8-1.56-10.24-2.13-19.82-3.32-37.07,1.08-51.42,16-10.82,11.25-19.84,23.69-27.4,37.23-28.66,51.32-57.07,102.8-80.64,156.73-13.15,30.1-26.03,60.37-37.64,91.08-9.44,24.98-5.31,48.82,11.93,69.7,20.16,24.41,52.42,28.43,78.12,9.94,11.27-8.11,20.11-18.56,26.77-30.53,9.77-17.54,19.18-35.31,27.8-53.43,30.08-63.26,59.73-126.73,89.6-190.1,7.59-16.1,12.61-32.83,13.17-53.42ZM12.6,145.36c6.27,2.62,11.99,5.68,18.09,7.43,14.93,4.27,29.74,1.78,44.21-2.5,42.75-12.65,83.76-29.91,124.69-47.41,8.94-3.82,14.55-9.47,19.29-17.83,10.89-19.18,22.97-37.69,34.57-56.47.63-1.02,1.35-1.98,2.62-3.84-2.73.89-4.44,1.41-6.12,1.99-57.3,19.93-113.28,43.12-168.07,69.09-16,7.58-31.38,16.6-46.5,25.84-9.07,5.55-16.27,13.6-22.78,23.7Zm255.72,163.29c-12.22,25.82-24.83,51.42-43.39,73.82,75.22-23.67,148.87-51.24,222.12-80.64-2.96-8.54-6.06-16.09-8.14-23.92-1.96-7.35-7.24-10.58-13.76-13.62-1.95,3.82-3.91,7.46-5.69,11.17-1.4,2.92-3.26,3.5-5.93,1.66-2.98-2.05-6-4.06-9.02-6.1-.44.61-.82.97-1.01,1.42-1.23,2.9-2.41,5.82-3.64,8.73-2.17,5.13-2.77,5.29-7.54,2.1-3.24-2.17-6.48-4.32-10.06-6.7-1.67,3.93-3.15,7.25-4.51,10.63-1.24,3.09-3.08,3.6-5.76,1.67-3.04-2.19-6.14-4.31-9.53-6.68-1.76,3.42-3.26,6.37-4.77,9.31-3.16,6.13-4.3,6.43-10.28,2.65-2.6-1.64-5.16-3.36-7.96-5.19-1.8,3.03-3.47,5.51-4.81,8.16-1.69,3.33-3.74,4.12-7.17,2.23-4-2.21-8.26-3.95-12.52-5.96-2.23,3.42-4.27,6.25-5.99,9.26-2.12,3.72-4.36,4.84-8.34,2.12-3.18-2.18-6.96-3.47-10.43-5.13q-8.82,16.1-21.89,9.02Zm-61.71-203.21c-2.27.91-3.78,1.47-5.24,2.12-39.66,17.47-79.67,34.04-121.19,46.65-23.81,7.23-47.57,10.14-70.23-5.2-1.37,1.9-2.67,3.71-3.97,5.51,8.61,6.52,24.63,11.58,37.7,12.4,20.78,1.31,40.99-2.11,60.04-9.78,31.07-12.52,61.54-26.51,92.39-39.58,5.41-2.29,8.62-5.75,10.5-12.11Z"/><path d="m190.01,340.81c-.18,9.76-8.3,18.18-17.51,18.17-8.61-.01-14.84-6.76-14.73-15.96.12-9.97,7.12-18.31,15.33-18.27,9.25.05,17.07,7.47,16.9,16.06Zm-27.07,1.62c-.03,6.31,4.19,11.35,9.45,11.27,6.33-.1,12.41-6.21,12.5-12.59.08-5.65-5.47-11.01-11.35-10.95-5.77.05-10.56,5.6-10.6,12.27Z"/><path d="m323.25,64.59c-.14,9.59-7.51,18.18-15.62,18.23-8.72.05-16.42-8.52-16.25-18.06.17-9.43,6.68-16.57,15.07-16.51,10.05.07,16.94,6.77,16.79,16.34Zm-16.17-10.76c-6.54-.05-10.47,3.88-10.49,10.49-.02,6.78,4.82,12.88,10.4,13.09,5.69.21,11.06-5.99,11.18-12.9.11-6.26-4.43-10.63-11.08-10.68Z"/><path d="m89.09,107.73c-1.28.86-2.44,2.08-3.85,2.53-12.62,4.01-23.9,10.48-34.54,18.24-.99.72-2.85.27-4.3.36.44-1.5.4-3.6,1.4-4.4,10.87-8.62,23.01-14.99,36.18-19.3,1.43-.47,3.29.4,4.95.65.06.64.11,1.28.17,1.92Z"/><path d="m388.44,318.74c-.54-.61-1.94-1.58-1.79-2.13.34-1.26,1.18-2.86,2.27-3.37,5.7-2.66,11.5-5.09,17.33-7.46,3.83-1.56,7.71-3.07,11.68-4.19,1.12-.32,2.65.82,3.99,1.28-.69,1.14-1.12,2.9-2.11,3.33-9.74,4.16-19.57,8.1-29.38,12.09-.45.18-.96.22-1.98.44Z"/></g></svg>